<?xml version="1.0" encoding="utf-8"?>
<!-- Generator: Adobe Illustrator 25.0.0, SVG Export Plug-In . SVG Version: 6.00 Build 0)  -->
<svg version="1.1" id="Layer_1" xmlns="http://www.w3.org/2000/svg" xmlns:xlink="http://www.w3.org/1999/xlink" x="0px" y="0px"
	 viewBox="0 0 299.7 61.2" style="enable-background:new 0 0 299.7 61.2;" xml:space="preserve">
<style type="text/css">
	.st0{fill:#D9FF3B;}
	.st1{fill:#0D0219;}
	.st2{fill:url(#SVGID_1_);}
	.st3{fill:url(#SVGID_2_);}
	.st4{fill:url(#SVGID_3_);}
	.st5{fill:url(#SVGID_4_);}
	.st6{fill:url(#SVGID_5_);}
	.st7{fill:url(#SVGID_6_);}
	.st8{fill:url(#SVGID_7_);}
	.st9{fill:url(#SVGID_8_);}
	.st10{fill:url(#SVGID_9_);}
	.st11{fill:url(#SVGID_10_);}
	.st12{fill:url(#SVGID_11_);}
	.st13{fill:url(#SVGID_12_);}
	.st14{fill:url(#SVGID_13_);}
	.st15{fill:url(#SVGID_14_);}
	.st16{fill:url(#SVGID_15_);}
	.st17{fill:url(#SVGID_16_);}
	.st18{fill:url(#SVGID_17_);}
	.st19{fill:url(#SVGID_18_);}
	.st20{fill:url(#SVGID_19_);}
	.st21{fill:url(#SVGID_20_);}
	.st22{fill:url(#SVGID_21_);}
	.st23{fill:url(#SVGID_22_);}
	.st24{fill:url(#SVGID_23_);}
	.st25{fill:url(#SVGID_24_);}
	.st26{fill:url(#SVGID_25_);}
	.st27{fill:url(#SVGID_26_);}
	.st28{fill:url(#SVGID_27_);}
	.st29{fill:url(#SVGID_28_);}
	.st30{fill:url(#SVGID_29_);}
	.st31{fill:url(#SVGID_30_);}
</style>
<g>
	<path class="st0" d="M276.9,54.1H44l-13.7,7l1-7H0l2.9-20.3h2.1c-0.1-0.1-0.1-0.2-0.2-0.3C3.6,32,2.2,29.3,2.8,25L5.1,8.5
		C6.1,3.2,9.9,0,15.5,0h20.6l-1.3,8.9H144l1.3-8.9h21.1c4.7,0,7.3,2.1,8.7,3.8c1.2,1.4,1.9,3.2,2.2,5.1h122.1l-1.9,13.1h2.2l-4,28.7
		L276,61.2L276.9,54.1z"/>
	<g>
		<g>
			<path class="st0" d="M20.4,13.7h7.9l1.1-7.5H15.5c-2.1,0-4.2,0.6-4.7,3.5L8.4,25.9c-0.4,3,0.8,5,4.6,5h4.8c0.5,0,0.6,0.2,0.5,0.6
				l-0.9,7.1c-0.2,1-0.4,1.4-2,1.4H7.8l-1.1,7.9h14.8c1.9,0,3.7-0.9,3.9-2.5l2.3-16.2c0.6-4.1-1.7-5.8-5-5.8h-4.8l1.2-8.5
				C19.1,14,19.8,13.7,20.4,13.7z"/>
			<path class="st0" d="M42.6,15.1l-3.9,27.3h-1.8c-1,0-1.6-0.4-1.4-1.4l3.7-26h-7l-3.8,26.7c-0.6,4.3,2.1,6.1,5.6,6.1h4.1l-0.4,2.6
				l7.5-3.8l4.5-31.6L42.6,15.1L42.6,15.1z"/>
			<path class="st0" d="M64.6,15.1H52l-4.6,32.8h7.1l1.4-9.7c3.1,0.5,9.9,1,10.6-3.5l2.2-15.4C68.9,17.2,67.7,15.1,64.6,15.1z
				 M58.4,20.4h2.1c1,0,1.4,0.5,1.3,1.4L60.3,32c-0.1,1.1-0.4,1.3-1.2,1.3h-2.5L58.4,20.4z"/>
			<path class="st0" d="M86.8,30.4l1.6-11.1c0.3-2.2-1-4.1-4.1-4.1H71.4L66.7,48h7.1l2-14h2.4c0.9,0,1,0.6,0.9,1.1L77.3,48h7.1
				L86,36c0.4-2.4-0.9-3.4-2-3.6C85.8,32.4,86.6,31.4,86.8,30.4z M78.9,29.1h-2.4l1.2-8.7h2.2c1.1,0,1.4,0.5,1.3,1.4l-0.9,6.1
				C80.2,28.8,79.6,29.1,78.9,29.1z"/>
			<polygon class="st0" points="101.9,34.1 102.8,28.2 96.6,28.2 97.6,21 103.9,21 104.8,15.1 91.3,15.1 86.7,47.9 99.9,47.9 
				101.2,41.7 94.7,41.7 95.8,34.1 			"/>
			<polygon class="st0" points="123.3,15.1 117.2,26.6 114.1,15.1 107,15.1 102.4,47.9 109.5,47.9 112.1,29.7 115.3,39.9 
				121.4,29.7 118.8,47.9 125.9,47.9 130.6,15.1 			"/>
			<polygon class="st0" points="143.5,34.1 144.3,28.2 138.2,28.2 139.2,21 145.5,21 146.3,15.1 132.9,15.1 128.3,47.9 141.5,47.9 
				142.8,41.7 136.3,41.7 137.3,34.1 			"/>
			<path class="st0" d="M169.9,24.2l1.8-12.6c0.4-3-1.1-5.5-5.3-5.5h-16.2l-5.9,41.8h17c3.9,0,5.7-1.7,6.1-4.4l1.7-11.5
				c0.3-2.2-0.7-4.7-3.8-4.9C168.3,27.2,169.7,25.6,169.9,24.2z M161.5,22.2c-0.2,1.3-0.8,1.5-2,1.5h-2.9l1.6-10.9h2.9
				c1.4,0,1.7,0.7,1.5,1.7L161.5,22.2z M154.2,41l1.7-11.7h2.9c1.3,0,1.7,0.8,1.6,1.8l-1.2,8.4c-0.2,1.3-0.8,1.4-1.7,1.4L154.2,41
				L154.2,41z"/>
			<path class="st0" d="M187.6,15.1h-10.2c-2.3,0-3.7,1.3-3.9,3.2l-3.6,25.1c-0.4,2.8,1.7,4.5,4.1,4.5h8.4c2.4,0,4.5-0.8,4.9-3.5
				l3.6-25.6C191.2,16.9,189.8,15.1,187.6,15.1z M180.8,41.7c-0.1,0.5-0.4,0.8-1,0.8H178c-0.6,0-0.9-0.3-0.8-0.8l2.9-20.5
				c0.1-0.5,0.2-0.8,1-0.8h1.8c0.7,0,0.9,0.4,0.9,0.9L180.8,41.7z"/>
			<path class="st0" d="M207.5,15.1h-10.2c-2.3,0-3.7,1.3-3.9,3.2l-3.6,25.1c-0.4,2.8,1.7,4.5,4.1,4.5h8.4c2.4,0,4.5-0.8,4.9-3.5
				l3.6-25.6C211.1,16.9,209.7,15.1,207.5,15.1z M200.8,41.7c-0.1,0.5-0.4,0.8-1,0.8h-1.8c-0.6,0-0.9-0.3-0.8-0.8l2.9-20.5
				c0.1-0.5,0.2-0.8,1-0.8h1.8c0.7,0,0.9,0.4,0.9,0.9L200.8,41.7z"/>
			<path class="st0" d="M213.3,17.9l-1.8,12.7c-0.3,2.4,0.6,4,3.6,4h3.8c0.4,0,0.5,0.2,0.4,0.5l-0.7,5.5c-0.1,0.8-0.3,1.1-1.6,1.1
				H211l-0.9,6.2h11.6c1.5,0,2.9-0.7,3-2l1.8-12.7c0.5-3.2-1.4-4.6-3.9-4.6h-3.8l0.9-6.7c0.1-0.7,0.6-1,1.1-1h6.2l0.9-5.9H217
				C215.3,15.1,213.7,15.6,213.3,17.9z"/>
			<polygon class="st0" points="246.3,15.1 229.8,15.1 229,21 233.8,21 230,47.9 237,47.9 240.7,21 245.5,21 			"/>
			<polygon class="st0" points="248.3,15.1 243.7,47.9 251,47.9 255.6,15.1 			"/>
			<polygon class="st0" points="268.1,15.1 266.3,27.8 264,15.1 258,15.1 253.3,47.9 260,47.9 261.9,34.8 264.7,47.9 270.3,47.9 
				275,15.1 			"/>
			<path class="st1" d="M286.5,25l0.6-0.8h7.4l1.8-12.4H281h-2.5h-19.4h-3.7h-5.5h-4.1h-14.3h-4.2H217h-9.5h-10.2h-9.7h-10.2h-2.7
				c0.3-2.3-0.3-4.5-1.6-6.1c-1-1.3-3-2.8-6.7-2.8h-18.8l-1.3,8.9h-12.2h-3.8h-8.8h-5.2h-8h-3.8H88.8h-4.5H68.8h-4.2H53.2h-3.7H31.6
				l1.3-8.9H15.5c-5.7,0-7.3,3.8-7.7,6.1l0,0.1L5.4,25.4C5,28.6,6,30.6,6.9,31.6c1.4,1.7,3.4,2.5,6.1,2.5h1.9l-0.3,2.6H5.2L3.2,51.2
				H12h9.4h12.5h0.6L33.8,56l9.6-4.9h0.5h13.2h6.2h20h3.7h12h3.4h9.8h3.3h9.4h3.7h12.3h3.1h17.4H174h8.4H194h8.4h4.2h15.1h4.8h13.1
				h0.6h9.6h3.7H273h6.2h0.9l-0.6,4.9l13.7-7.3l3.4-23.8L286.5,25L286.5,25z"/>
			<path class="st0" d="M284.9,28.2l-0.8,5.8h1.5l-1.2,8.4h-2.4c-0.9,0-1.4-0.4-1.3-1.3l2.7-19.1c0.1-0.8,0.5-1,1.2-1h7.3l0.9-5.9
				H281c-2.2,0-3.7,0.6-4,3.1l-3.3,23.7c-0.6,4.3,2.4,6.1,5.6,6.1h4.4l-0.3,2.6l7.3-3.8l2.6-18.4L284.9,28.2L284.9,28.2z"/>
		</g>
		<g>
			
				<linearGradient id="SVGID_1_" gradientUnits="userSpaceOnUse" x1="18.045" y1="338.0102" x2="18.045" y2="327.2422" gradientTransform="matrix(1 0 0 -1 0 363.7901)">
				<stop  offset="0" style="stop-color:#D9FF3B"/>
				<stop  offset="1" style="stop-color:#FF69EA"/>
			</linearGradient>
			<path class="st2" d="M20.4,13.7c-0.7,0-1.3,0.3-1.4,1.2l-1.2,8.5h4.8c3.2,0,5.5,1.7,5,5.8l-2.3,16.2c-0.2,1.7-2,2.5-3.9,2.5H6.7
				L7.8,40h7.5c1.7,0,1.9-0.4,2-1.4l0.9-7.1c0.1-0.3,0-0.6-0.5-0.6H13c-3.8,0-5-2-4.6-5l2.3-16.2c0.5-2.9,2.6-3.5,4.7-3.5h13.9
				l-1.1,7.5L20.4,13.7L20.4,13.7z"/>
			
				<linearGradient id="SVGID_2_" gradientUnits="userSpaceOnUse" x1="18.04" y1="343.3906" x2="18.04" y2="326.5634" gradientTransform="matrix(1 0 0 -1 0 363.7901)">
				<stop  offset="0" style="stop-color:#FF69EA"/>
				<stop  offset="1" style="stop-color:#E04CD9"/>
			</linearGradient>
			<path class="st3" d="M7.6,47.1l0.9-6.3h6.9c2,0,2.5-0.7,2.8-2.1l0.9-7.1c0-0.1,0.1-0.6-0.2-1c-0.3-0.4-0.9-0.4-1.1-0.4H13
				c-1.6,0-2.7-0.4-3.3-1.1c-0.5-0.7-0.7-1.7-0.5-3l2.3-16.2c0.4-2,1.5-2.8,4-2.8h13l-0.9,5.9h-7.2c-1.2,0-2,0.7-2.1,1.9L17,24.2
				h5.7c1.1,0,2.7,0.2,3.6,1.4c0.6,0.8,0.9,2,0.6,3.5l-2.3,16.2c-0.1,1.2-1.7,1.8-3.1,1.8L7.6,47.1L7.6,47.1z"/>
			
				<linearGradient id="SVGID_3_" gradientUnits="userSpaceOnUse" x1="38.9819" y1="338.0102" x2="38.9819" y2="327.2422" gradientTransform="matrix(1 0 0 -1 0 363.7901)">
				<stop  offset="0" style="stop-color:#D9FF3B"/>
				<stop  offset="1" style="stop-color:#FF69EA"/>
			</linearGradient>
			<path class="st4" d="M39.2,15.1l-3.7,26c-0.2,1,0.4,1.4,1.4,1.4h1.8l3.9-27.3h7l-4.5,31.6l-7.5,3.8l0.4-2.6h-4.1
				c-3.5,0-6.2-1.8-5.6-6.1l3.8-26.7L39.2,15.1L39.2,15.1L39.2,15.1z"/>
			
				<linearGradient id="SVGID_4_" gradientUnits="userSpaceOnUse" x1="38.9268" y1="343.3906" x2="38.9268" y2="326.5634" gradientTransform="matrix(1 0 0 -1 0 363.7901)">
				<stop  offset="0" style="stop-color:#FF69EA"/>
				<stop  offset="1" style="stop-color:#E04CD9"/>
			</linearGradient>
			<path class="st5" d="M38.9,47.1h-5c-1.9,0-3.3-0.5-4.1-1.6c-0.7-0.9-0.9-2.1-0.7-3.6l3.7-26h5.5l-3.5,25c-0.1,0.6,0,1.2,0.3,1.6
				c0.4,0.5,1,0.7,1.8,0.7h2.5l3.9-27.3h5.5l-4.3,30.2l-5.9,3L38.9,47.1z"/>
			
				<linearGradient id="SVGID_5_" gradientUnits="userSpaceOnUse" x1="57.9938" y1="338.0102" x2="57.9938" y2="327.2422" gradientTransform="matrix(1 0 0 -1 0 363.7901)">
				<stop  offset="0" style="stop-color:#D9FF3B"/>
				<stop  offset="1" style="stop-color:#FF69EA"/>
			</linearGradient>
			<path class="st6" d="M54.5,47.9h-7.1L52,15.1h12.5c3.1,0,4.3,2.1,4,4.2l-2.2,15.4c-0.6,4.5-7.5,4-10.6,3.5L54.5,47.9z M59.1,33.3
				c0.8,0,1.1-0.2,1.2-1.3l1.5-10.2c0.1-0.8-0.3-1.4-1.3-1.4h-2.1l-1.8,12.9L59.1,33.3L59.1,33.3z"/>
			
				<linearGradient id="SVGID_6_" gradientUnits="userSpaceOnUse" x1="58.0481" y1="343.3906" x2="58.0481" y2="326.5634" gradientTransform="matrix(1 0 0 -1 0 363.7901)">
				<stop  offset="0" style="stop-color:#FF69EA"/>
				<stop  offset="1" style="stop-color:#E04CD9"/>
			</linearGradient>
			<path class="st7" d="M48.3,47.1l4.4-31.2h11.9c1.2,0,2.2,0.4,2.7,1.1c0.4,0.6,0.6,1.4,0.5,2.2l-2.2,15.4
				c-0.3,2.1-2.3,3.1-6.1,3.1c-1.1,0-2.3-0.1-3.6-0.3l-0.7-0.1l-1.4,9.8H48.3z M55.6,34.1h3.4c1.2,0,1.8-0.5,1.9-2l1.5-10.2
				c0.1-0.8-0.1-1.3-0.4-1.6c-0.4-0.5-0.9-0.7-1.7-0.7h-2.7L55.6,34.1z"/>
			
				<linearGradient id="SVGID_7_" gradientUnits="userSpaceOnUse" x1="77.5708" y1="338.0102" x2="77.5708" y2="327.2422" gradientTransform="matrix(1 0 0 -1 0 363.7901)">
				<stop  offset="0" style="stop-color:#D9FF3B"/>
				<stop  offset="1" style="stop-color:#FF69EA"/>
			</linearGradient>
			<path class="st8" d="M73.8,47.9h-7.1l4.6-32.8h12.9c3.1,0,4.4,2,4.1,4.1l-1.6,11.1c-0.1,1-0.9,1.9-2.7,1.9c1.1,0.2,2.3,1.3,2,3.6
				l-1.7,12h-7.1l1.8-12.9c0.1-0.5-0.1-1.1-0.9-1.1h-2.4L73.8,47.9z M78.9,29.1c0.7,0,1.3-0.3,1.4-1.3l0.9-6.1
				c0.1-0.9-0.2-1.4-1.3-1.4h-2.2l-1.2,8.7L78.9,29.1L78.9,29.1z"/>
			
				<linearGradient id="SVGID_8_" gradientUnits="userSpaceOnUse" x1="77.6281" y1="343.3906" x2="77.6281" y2="326.5634" gradientTransform="matrix(1 0 0 -1 0 363.7901)">
				<stop  offset="0" style="stop-color:#FF69EA"/>
				<stop  offset="1" style="stop-color:#E04CD9"/>
			</linearGradient>
			<path class="st9" d="M78.1,47.1l1.7-11.9c0.1-0.5,0-1.1-0.3-1.4c-0.2-0.3-0.6-0.6-1.4-0.6h-3l-2,14h-5.6L72,15.9h12.3
				c1.3,0,2.2,0.4,2.8,1.1c0.4,0.6,0.6,1.3,0.5,2.1L86,30.3c-0.1,0.6-0.6,1.3-1.9,1.3L84,33.2c0.4,0.1,0.8,0.3,1,0.7
				c0.3,0.5,0.4,1.2,0.3,2l-1.6,11.3L78.1,47.1L78.1,47.1z M75.6,29.9h3.3c1.2,0,2-0.7,2.2-1.9l0.9-6.1c0.1-0.6,0-1.2-0.3-1.6
				c-0.4-0.5-0.9-0.7-1.7-0.7h-2.9L75.6,29.9z"/>
			
				<linearGradient id="SVGID_9_" gradientUnits="userSpaceOnUse" x1="95.73" y1="338.0102" x2="95.73" y2="327.2422" gradientTransform="matrix(1 0 0 -1 0 363.7901)">
				<stop  offset="0" style="stop-color:#D9FF3B"/>
				<stop  offset="1" style="stop-color:#FF69EA"/>
			</linearGradient>
			<path class="st10" d="M91.3,15.1h13.4l-0.9,5.9h-6.3l-1,7.2h6.1l-0.8,5.8h-6.1l-1.1,7.6h6.5l-1.3,6.2H86.7L91.3,15.1z"/>
			
				<linearGradient id="SVGID_10_" gradientUnits="userSpaceOnUse" x1="95.735" y1="343.3906" x2="95.735" y2="326.5634" gradientTransform="matrix(1 0 0 -1 0 363.7901)">
				<stop  offset="0" style="stop-color:#FF69EA"/>
				<stop  offset="1" style="stop-color:#E04CD9"/>
			</linearGradient>
			<polygon class="st11" points="87.6,47.1 92,15.9 103.9,15.9 103.3,20.2 97,20.2 95.7,29.1 101.9,29.1 101.3,33.3 95.1,33.3 
				93.8,42.5 100.3,42.5 99.3,47.1 			"/>
			
				<linearGradient id="SVGID_11_" gradientUnits="userSpaceOnUse" x1="116.495" y1="338.0102" x2="116.495" y2="327.2422" gradientTransform="matrix(1 0 0 -1 0 363.7901)">
				<stop  offset="0" style="stop-color:#D9FF3B"/>
				<stop  offset="1" style="stop-color:#FF69EA"/>
			</linearGradient>
			<path class="st12" d="M112.1,29.7l-2.6,18.2h-7.1l4.6-32.8h7l3.1,11.5l6.1-11.5h7.3l-4.7,32.8h-7.1l2.6-18.2l-6.1,10.2
				L112.1,29.7z"/>
			
				<linearGradient id="SVGID_12_" gradientUnits="userSpaceOnUse" x1="116.495" y1="343.3906" x2="116.495" y2="326.5634" gradientTransform="matrix(1 0 0 -1 0 363.7901)">
				<stop  offset="0" style="stop-color:#FF69EA"/>
				<stop  offset="1" style="stop-color:#E04CD9"/>
			</linearGradient>
			<polygon class="st13" points="119.7,47.1 122.1,29.8 120.8,29.3 115.5,38.1 112.8,29.4 111.4,29.6 108.8,47.1 103.3,47.1 
				107.7,15.9 113.5,15.9 117,28.6 123.7,15.9 129.7,15.9 125.3,47.1 			"/>
			
				<linearGradient id="SVGID_13_" gradientUnits="userSpaceOnUse" x1="137.3" y1="338.0102" x2="137.3" y2="327.2422" gradientTransform="matrix(1 0 0 -1 0 363.7901)">
				<stop  offset="0" style="stop-color:#D9FF3B"/>
				<stop  offset="1" style="stop-color:#FF69EA"/>
			</linearGradient>
			<path class="st14" d="M132.9,15.1h13.4l-0.9,5.9h-6.3l-1,7.2h6.1l-0.8,5.8h-6.1l-1.1,7.6h6.5l-1.3,6.2h-13.2L132.9,15.1z"/>
			
				<linearGradient id="SVGID_14_" gradientUnits="userSpaceOnUse" x1="137.3" y1="343.3906" x2="137.3" y2="326.5634" gradientTransform="matrix(1 0 0 -1 0 363.7901)">
				<stop  offset="0" style="stop-color:#FF69EA"/>
				<stop  offset="1" style="stop-color:#E04CD9"/>
			</linearGradient>
			<polygon class="st15" points="129.1,47.1 133.6,15.9 145.5,15.9 144.8,20.2 138.5,20.2 137.3,29.1 143.4,29.1 142.8,33.3 
				136.7,33.3 135.4,42.5 141.8,42.5 140.9,47.1 			"/>
			
				<linearGradient id="SVGID_15_" gradientUnits="userSpaceOnUse" x1="157.9856" y1="338.0102" x2="157.9856" y2="327.2422" gradientTransform="matrix(1 0 0 -1 0 363.7901)">
				<stop  offset="0" style="stop-color:#D9FF3B"/>
				<stop  offset="1" style="stop-color:#FF69EA"/>
			</linearGradient>
			<path class="st16" d="M150.2,6.2h16.2c4.1,0,5.7,2.5,5.3,5.5l-1.8,12.6c-0.2,1.4-1.5,3-4.6,2.9c3.1,0.2,4.1,2.7,3.8,4.9
				l-1.7,11.5c-0.4,2.7-2.1,4.4-6.1,4.4h-17L150.2,6.2z M157.5,41c0.9,0,1.5-0.2,1.7-1.4l1.2-8.4c0.1-1-0.2-1.8-1.6-1.8h-2.9
				L154.2,41L157.5,41L157.5,41z M159.6,23.7c1.2,0,1.7-0.3,2-1.5l1.1-7.6c0.2-1-0.1-1.7-1.5-1.7h-2.9l-1.6,10.9L159.6,23.7
				L159.6,23.7z"/>
			
				<linearGradient id="SVGID_16_" gradientUnits="userSpaceOnUse" x1="158.0472" y1="343.3906" x2="158.0472" y2="326.5634" gradientTransform="matrix(1 0 0 -1 0 363.7901)">
				<stop  offset="0" style="stop-color:#FF69EA"/>
				<stop  offset="1" style="stop-color:#E04CD9"/>
			</linearGradient>
			<path class="st17" d="M145.2,47.1L150.8,7h15.5c1.8,0,3.1,0.5,3.8,1.4c0.8,1,0.8,2.2,0.7,3.1l-1.8,12.6c-0.1,1-1.1,2.2-3.5,2.2
				c-0.1,0-0.2,0-0.3,0l-0.1,1.6c1.1,0.1,1.9,0.5,2.5,1.2c0.5,0.7,0.8,1.7,0.6,2.8l-1.7,11.5c-0.2,1.6-1,3.7-5.3,3.7L145.2,47.1
				L145.2,47.1z M153.4,41.8h4.1c1,0,2.1-0.2,2.4-2.1l1.2-8.4c0.1-1-0.2-1.7-0.5-2c-0.4-0.5-1-0.8-1.9-0.8h-3.5L153.4,41.8z
				 M155.8,24.6h3.8c1.2,0,2.4-0.3,2.7-2.2l1.1-7.6c0.1-0.8,0-1.4-0.3-1.9c-0.4-0.5-1-0.8-1.9-0.8h-3.6L155.8,24.6z"/>
			
				<linearGradient id="SVGID_17_" gradientUnits="userSpaceOnUse" x1="180.4308" y1="338.0102" x2="180.4308" y2="327.2422" gradientTransform="matrix(1 0 0 -1 0 363.7901)">
				<stop  offset="0" style="stop-color:#D9FF3B"/>
				<stop  offset="1" style="stop-color:#FF69EA"/>
			</linearGradient>
			<path class="st18" d="M187.6,15.1c2.2,0,3.6,1.8,3.4,3.8l-3.6,25.6c-0.4,2.7-2.6,3.5-4.9,3.5H174c-2.4,0-4.5-1.7-4.1-4.5
				l3.6-25.1c0.2-1.9,1.6-3.2,3.9-3.2L187.6,15.1L187.6,15.1z M180.1,21.2l-2.9,20.5c-0.1,0.5,0.2,0.8,0.8,0.8h1.8
				c0.6,0,0.9-0.3,1-0.8l2.9-20.4c0.1-0.5-0.2-0.9-0.9-0.9h-1.8C180.4,20.4,180.2,20.7,180.1,21.2z"/>
			
				<linearGradient id="SVGID_18_" gradientUnits="userSpaceOnUse" x1="180.4335" y1="343.3906" x2="180.4335" y2="326.5634" gradientTransform="matrix(1 0 0 -1 0 363.7901)">
				<stop  offset="0" style="stop-color:#FF69EA"/>
				<stop  offset="1" style="stop-color:#E04CD9"/>
			</linearGradient>
			<path class="st19" d="M174,47.1c-1.1,0-2.2-0.5-2.8-1.2c-0.5-0.6-0.7-1.4-0.6-2.3l3.6-25.1c0.2-1.6,1.3-2.5,3.1-2.5h10.2
				c0.9,0,1.6,0.3,2.1,1c0.4,0.5,0.6,1.2,0.5,1.9l-3.6,25.6c-0.1,0.7-0.4,2.8-4.2,2.8L174,47.1L174,47.1z M181.1,19.6
				c-0.7,0-1.5,0.3-1.7,1.5l-2.9,20.5c-0.1,0.5,0,0.9,0.3,1.2c0.2,0.2,0.6,0.5,1.2,0.5h1.8c0.9,0,1.6-0.6,1.7-1.5l2.9-20.4
				c0.1-0.5,0-0.9-0.3-1.2c-0.2-0.2-0.6-0.5-1.3-0.5L181.1,19.6L181.1,19.6z"/>
			
				<linearGradient id="SVGID_19_" gradientUnits="userSpaceOnUse" x1="200.3409" y1="338.0102" x2="200.3409" y2="327.2422" gradientTransform="matrix(1 0 0 -1 0 363.7901)">
				<stop  offset="0" style="stop-color:#D9FF3B"/>
				<stop  offset="1" style="stop-color:#FF69EA"/>
			</linearGradient>
			<path class="st20" d="M207.5,15.1c2.2,0,3.6,1.8,3.4,3.8l-3.6,25.6c-0.4,2.7-2.6,3.5-4.9,3.5h-8.4c-2.4,0-4.5-1.7-4.1-4.5
				l3.6-25.1c0.2-1.9,1.6-3.2,3.9-3.2L207.5,15.1L207.5,15.1z M200.1,21.2l-2.9,20.5c-0.1,0.5,0.2,0.8,0.8,0.8h1.8
				c0.6,0,0.9-0.3,1-0.8l2.9-20.4c0.1-0.5-0.2-0.9-0.9-0.9H201C200.3,20.4,200.1,20.7,200.1,21.2z"/>
			
				<linearGradient id="SVGID_20_" gradientUnits="userSpaceOnUse" x1="200.3435" y1="343.3906" x2="200.3435" y2="326.5634" gradientTransform="matrix(1 0 0 -1 0 363.7901)">
				<stop  offset="0" style="stop-color:#FF69EA"/>
				<stop  offset="1" style="stop-color:#E04CD9"/>
			</linearGradient>
			<path class="st21" d="M193.9,47.1c-1.1,0-2.2-0.5-2.8-1.2c-0.5-0.6-0.7-1.4-0.6-2.3l3.6-25.1c0.2-1.6,1.3-2.5,3.1-2.5h10.2
				c0.9,0,1.6,0.3,2.1,1c0.4,0.5,0.6,1.2,0.5,1.9l-3.6,25.6c-0.1,0.7-0.4,2.8-4.2,2.8L193.9,47.1L193.9,47.1z M201,19.6
				c-0.7,0-1.5,0.3-1.7,1.5l-2.9,20.5c-0.1,0.5,0.1,0.9,0.3,1.2c0.2,0.2,0.6,0.5,1.2,0.5h1.8c0.9,0,1.6-0.6,1.7-1.5l2.9-20.4
				c0.1-0.5,0-0.9-0.3-1.2c-0.2-0.2-0.6-0.5-1.3-0.5L201,19.6L201,19.6z"/>
			
				<linearGradient id="SVGID_21_" gradientUnits="userSpaceOnUse" x1="219.025" y1="338.0102" x2="219.025" y2="327.2422" gradientTransform="matrix(1 0 0 -1 0 363.7901)">
				<stop  offset="0" style="stop-color:#D9FF3B"/>
				<stop  offset="1" style="stop-color:#FF69EA"/>
			</linearGradient>
			<path class="st22" d="M220.9,21c-0.5,0-1,0.2-1.1,1l-0.9,6.7h3.8c2.5,0,4.4,1.4,3.9,4.6l-1.8,12.7c-0.2,1.3-1.6,2-3,2h-11.6
				l0.9-6.2h5.9c1.3,0,1.5-0.3,1.6-1.1l0.7-5.5c0-0.3,0-0.5-0.4-0.5h-3.8c-3,0-3.9-1.6-3.6-4l1.8-12.7c0.4-2.3,2-2.8,3.7-2.8H228
				l-0.9,5.9L220.9,21L220.9,21z"/>
			
				<linearGradient id="SVGID_22_" gradientUnits="userSpaceOnUse" x1="219.02" y1="343.3906" x2="219.02" y2="326.5634" gradientTransform="matrix(1 0 0 -1 0 363.7901)">
				<stop  offset="0" style="stop-color:#FF69EA"/>
				<stop  offset="1" style="stop-color:#E04CD9"/>
			</linearGradient>
			<path class="st23" d="M211,47.1l0.7-4.6h5.3c1.5,0,2.1-0.4,2.3-1.8l0.7-5.6c0-0.1,0.1-0.6-0.2-1c-0.3-0.4-0.8-0.4-1-0.4h-3.8
				c-1.2,0-2-0.3-2.5-0.8c-0.4-0.5-0.5-1.2-0.4-2.2L214,18c0.3-1.5,1.1-2.1,3-2.1h10.1l-0.6,4.3h-5.6c-1,0-1.7,0.6-1.9,1.6l-1,7.6
				h4.7c0.9,0,2,0.2,2.7,1c0.5,0.6,0.6,1.5,0.5,2.6L224,45.8c-0.1,0.9-1.2,1.3-2.3,1.3L211,47.1L211,47.1z"/>
			
				<linearGradient id="SVGID_23_" gradientUnits="userSpaceOnUse" x1="237.655" y1="338.0102" x2="237.655" y2="327.2422" gradientTransform="matrix(1 0 0 -1 0 363.7901)">
				<stop  offset="0" style="stop-color:#D9FF3B"/>
				<stop  offset="1" style="stop-color:#FF69EA"/>
			</linearGradient>
			<path class="st24" d="M246.3,15.1l-0.9,5.9h-4.8L237,47.9h-7l3.9-26.9H229l0.9-5.9H246.3z"/>
			
				<linearGradient id="SVGID_24_" gradientUnits="userSpaceOnUse" x1="237.655" y1="343.3906" x2="237.655" y2="326.5634" gradientTransform="matrix(1 0 0 -1 0 363.7901)">
				<stop  offset="0" style="stop-color:#FF69EA"/>
				<stop  offset="1" style="stop-color:#E04CD9"/>
			</linearGradient>
			<polygon class="st25" points="230.8,47.1 234.7,20.2 229.8,20.2 230.5,15.9 245.5,15.9 244.8,20.2 240.1,20.2 236.4,47.1 			"/>
			
				<linearGradient id="SVGID_25_" gradientUnits="userSpaceOnUse" x1="249.64" y1="338.0102" x2="249.64" y2="327.2422" gradientTransform="matrix(1 0 0 -1 0 363.7901)">
				<stop  offset="0" style="stop-color:#D9FF3B"/>
				<stop  offset="1" style="stop-color:#FF69EA"/>
			</linearGradient>
			<path class="st26" d="M251,47.9h-7.3l4.6-32.8h7.3L251,47.9z"/>
			
				<linearGradient id="SVGID_26_" gradientUnits="userSpaceOnUse" x1="249.64" y1="343.3906" x2="249.64" y2="326.5634" gradientTransform="matrix(1 0 0 -1 0 363.7901)">
				<stop  offset="0" style="stop-color:#FF69EA"/>
				<stop  offset="1" style="stop-color:#E04CD9"/>
			</linearGradient>
			<polygon class="st27" points="244.6,47.1 249,15.9 254.7,15.9 250.3,47.1 			"/>
			
				<linearGradient id="SVGID_27_" gradientUnits="userSpaceOnUse" x1="264.155" y1="338.0102" x2="264.155" y2="327.2422" gradientTransform="matrix(1 0 0 -1 0 363.7901)">
				<stop  offset="0" style="stop-color:#D9FF3B"/>
				<stop  offset="1" style="stop-color:#FF69EA"/>
			</linearGradient>
			<path class="st28" d="M258,15.1h6.1l2.3,12.7l1.8-12.7h6.9l-4.6,32.8h-5.7l-2.8-13.1L260,47.9h-6.7L258,15.1z"/>
			
				<linearGradient id="SVGID_28_" gradientUnits="userSpaceOnUse" x1="264.15" y1="343.3906" x2="264.15" y2="326.5634" gradientTransform="matrix(1 0 0 -1 0 363.7901)">
				<stop  offset="0" style="stop-color:#FF69EA"/>
				<stop  offset="1" style="stop-color:#E04CD9"/>
			</linearGradient>
			<polygon class="st29" points="265.3,47.1 262.6,34.7 261.2,34.7 259.3,47.1 254.2,47.1 258.6,15.9 263.4,15.9 265.6,27.9 
				267.1,27.9 268.8,15.9 274.1,15.9 269.7,47.1 			"/>
			
				<linearGradient id="SVGID_29_" gradientUnits="userSpaceOnUse" x1="283.2512" y1="338.0102" x2="283.2512" y2="327.2422" gradientTransform="matrix(1 0 0 -1 0 363.7901)">
				<stop  offset="0" style="stop-color:#D9FF3B"/>
				<stop  offset="1" style="stop-color:#FF69EA"/>
			</linearGradient>
			<path class="st30" d="M292.7,15.1l-0.9,5.9h-7.3c-0.8,0-1.1,0.2-1.2,1l-2.7,19.1c-0.1,1,0.4,1.3,1.3,1.3h2.4l1.2-8.4H284l0.8-5.8
				h8.2l-2.6,18.4l-7.3,3.8l0.3-2.6h-4.4c-3.2,0-6.2-1.8-5.6-6.1l3.3-23.7c0.4-2.4,1.8-3.1,4-3.1L292.7,15.1L292.7,15.1z"/>
			
				<linearGradient id="SVGID_30_" gradientUnits="userSpaceOnUse" x1="283.209" y1="343.3906" x2="283.209" y2="326.5634" gradientTransform="matrix(1 0 0 -1 0 363.7901)">
				<stop  offset="0" style="stop-color:#FF69EA"/>
				<stop  offset="1" style="stop-color:#E04CD9"/>
			</linearGradient>
			<path class="st31" d="M284.4,47.1h-5.2c-1.8,0-3.2-0.6-4.1-1.6c-0.7-0.9-1-2.1-0.7-3.6l3.3-23.7c0.2-1.8,1.1-2.4,3.3-2.4h10.9
				l-0.6,4.3h-6.7c-0.7,0-1.8,0.2-1.9,1.7L279.9,41c-0.1,0.7,0,1.2,0.4,1.6c0.4,0.4,0.9,0.6,1.7,0.6h3l1.4-10h-1.5l0.6-4.2h6.6
				l-2.4,17.1l-5.6,3L284.4,47.1z"/>
		</g>
	</g>
</g>
</svg>
