<?xml version="1.0" standalone="no"?>
<!DOCTYPE svg PUBLIC "-//W3C//DTD SVG 20010904//EN"
 "http://www.w3.org/TR/2001/REC-SVG-20010904/DTD/svg10.dtd">
<svg version="1.0" xmlns="http://www.w3.org/2000/svg"
 width="700.000000pt" height="700.000000pt" viewBox="0 0 700.000000 700.000000"
 preserveAspectRatio="xMidYMid meet">
<metadata>
Created by potrace 1.14, written by Peter Selinger 2001-2017
</metadata>
<g transform="translate(0.000000,700.000000) scale(0.100000,-0.100000)"
fill="#000000" stroke="none">
<path d="M3387 6924 c-1 -1 -56 -5 -122 -8 -124 -7 -140 -9 -265 -27 -146 -21
-181 -27 -320 -60 -295 -70 -624 -199 -885 -347 -110 -63 -378 -238 -461 -303
-296 -229 -542 -500 -745 -819 -67 -105 -201 -358 -241 -455 -61 -146 -80
-196 -116 -306 -35 -107 -73 -241 -87 -305 -2 -10 -10 -50 -19 -89 -8 -38 -17
-90 -21 -115 -3 -25 -8 -52 -10 -60 -18 -66 -39 -345 -39 -525 0 -117 10 -327
19 -392 59 -426 127 -661 304 -1036 102 -217 271 -483 438 -692 123 -154 354
-384 511 -510 225 -178 408 -293 670 -420 170 -83 435 -184 587 -225 135 -37
339 -80 445 -94 218 -29 635 -27 875 4 140 18 162 22 300 51 1015 212 1891
886 2352 1810 202 407 310 794 353 1269 8 93 6 505 -3 545 -3 12 -8 52 -11 90
-25 267 -107 593 -218 870 -152 379 -347 699 -593 975 -114 129 -387 380 -530
488 -158 120 -492 319 -625 372 -19 7 -66 28 -105 46 -38 17 -142 55 -230 84
-88 29 -167 55 -175 58 -8 3 -20 6 -26 7 -6 2 -49 12 -95 23 -46 12 -97 23
-114 26 -16 3 -56 11 -88 16 -32 6 -72 13 -88 15 -17 2 -42 6 -57 9 -90 17
-550 42 -565 30z"/>
</g>
</svg>
